<?xml version="1.0" encoding="utf-8"?>
<!-- Generator: Adobe Illustrator 22.0.0, SVG Export Plug-In . SVG Version: 6.00 Build 0)  -->
<svg version="1.1" id="Capa_1" xmlns="http://www.w3.org/2000/svg" xmlns:xlink="http://www.w3.org/1999/xlink" x="0px" y="0px"
	 viewBox="0 0 66.8 65.6" style="enable-background:new 0 0 66.8 65.6;" xml:space="preserve">
<style type="text/css">
	.st0{fill:#FFFFFF;}
	.st1{fill:none;stroke:#FFFFFF;stroke-width:4;stroke-miterlimit:10;}
	.st2{fill:none;stroke:#FFFFFF;stroke-width:2;stroke-miterlimit:10;}
</style>
<path class="st1" d="M39.3,56.7c-2.4,0.8-4.9,1.2-7.5,1.2c-13,0-23.6-10.6-23.6-23.6c0-13,10.6-23.6,23.6-23.6
	c2.6,0,5.2,0.4,7.5,1.2C30,15,23.2,23.9,23.2,34.3C23.2,44.7,30,53.5,39.3,56.7z"/>
<polygon class="st2" points="52.1,22.8 53.5,27.1 58.1,27.1 54.4,29.9 55.8,34.2 52.1,31.5 48.4,34.2 49.8,29.9 46.1,27.1 
	50.7,27.1 "/>
</svg>
