<svg id="Capa_1" xmlns="http://www.w3.org/2000/svg" viewBox="0 0 66.8 65.6"><style>.st0{fill:#fff}</style><path class="st0" d="M33.4 30.5c-.8 0-1.5.7-1.5 1.5v2.8c0 .8.7 1.5 1.5 1.5s1.5-.7 1.5-1.5V32c0-.9-.7-1.5-1.5-1.5z"/><path class="st0" d="M51.9 55.4c.3-.5.3-1 0-1.5l-6.2-11.5h.6c.8 0 1.5-.7 1.5-1.5s-.7-1.5-1.5-1.5H44l-1.1-2-2.6-9.5h.9c.8 0 1.5-.7 1.5-1.5s-.7-1.5-1.5-1.5h-1.7L38 17.2c-.2-.7-.8-1.2-1.5-1.2h-1.6v-5c0-.8-.7-1.5-1.5-1.5s-1.5.7-1.5 1.5v5h-1.5c-.7 0-1.3.5-1.5 1.2l-1.7 7.5h-1.8c-.8 0-1.5.7-1.5 1.5s.7 1.5 1.5 1.5h1l-2.6 9.5-1.1 2h-2.4c-.8 0-1.5.7-1.5 1.5s.7 1.5 1.5 1.5h.7l-6.2 11.5c-.3.5-.2 1 0 1.5.3.5.8.7 1.3.7h8c.8 0 1.5-.7 1.5-1.5 0-1.3 0-5.3 7.3-5.3 5.1 0 8.1 1.9 8.1 5.3 0 .8.7 1.5 1.5 1.5h8.1c.6.3 1.1 0 1.3-.5zM31.5 19.1h3.7l1.3 5.6h-6.2l1.2-5.6zm-4.9 19.5c.1-.1.1-.2.1-.3l2.9-10.5h7.7l2.9 10.5c0 .1.1.2.1.3l.4.7H26.2l.4-.7zm17.3 14.5c-.7-3.5-3.8-6.9-11-6.9-7.7 0-9.7 4-10.2 6.9h-4l5.8-10.7h17.7L48 53.1h-4.1z"/></svg>