<?xml version="1.0" encoding="utf-8"?>
<!-- Generator: Adobe Illustrator 22.0.0, SVG Export Plug-In . SVG Version: 6.00 Build 0)  -->
<svg version="1.1" id="Capa_1" xmlns="http://www.w3.org/2000/svg" xmlns:xlink="http://www.w3.org/1999/xlink" x="0px" y="0px"
	 viewBox="0 0 66.8 65.6" style="enable-background:new 0 0 66.8 65.6;" xml:space="preserve">
<style type="text/css">
	.st0{fill:#FFFFFF;}
	.st1{fill:none;stroke:#FFFFFF;stroke-width:4;stroke-miterlimit:10;}
</style>
<g>
	<path class="st0" d="M33.4,30.5c-0.8,0-1.5,0.7-1.5,1.5v2.8c0,0.8,0.7,1.5,1.5,1.5s1.5-0.7,1.5-1.5V32
		C34.9,31.1,34.2,30.5,33.4,30.5z"/>
	<path class="st0" d="M51.9,55.4c0.3-0.5,0.3-1,0-1.5l-6.2-11.5h0.6c0.8,0,1.5-0.7,1.5-1.5s-0.7-1.5-1.5-1.5h-2.3l-1.1-2l-2.6-9.5
		h0.9c0.8,0,1.5-0.7,1.5-1.5s-0.7-1.5-1.5-1.5h-1.7L38,17.2c-0.2-0.7-0.8-1.2-1.5-1.2h-1.6v-5c0-0.8-0.7-1.5-1.5-1.5
		s-1.5,0.7-1.5,1.5v5h-1.5c-0.7,0-1.3,0.5-1.5,1.2l-1.7,7.5h-1.8c-0.8,0-1.5,0.7-1.5,1.5s0.7,1.5,1.5,1.5h1l-2.6,9.5l-1.1,2h-2.4
		c-0.8,0-1.5,0.7-1.5,1.5s0.7,1.5,1.5,1.5h0.7l-6.2,11.5c-0.3,0.5-0.2,1,0,1.5c0.3,0.5,0.8,0.7,1.3,0.7h7.7c0.1,0,0.1,0,0.1,0
		c0.1,0,0.1,0,0.2,0c0.8,0,1.5-0.7,1.5-1.5c0-1.3,0-5.3,7.3-5.3c5.1,0,8.1,1.9,8.1,5.3c0,0.8,0.7,1.5,1.5,1.5c0.1,0,0.1,0,0.2,0
		c0.1,0,0.1,0,0.2,0h7.7C51.2,56.2,51.7,55.9,51.9,55.4z M31.5,19.1h3.7l1.3,5.6h-6.2L31.5,19.1z M26.6,38.6
		c0.1-0.1,0.1-0.2,0.1-0.3l2.9-10.5h7.7l2.9,10.5c0,0.1,0.1,0.2,0.1,0.3l0.4,0.7H26.2L26.6,38.6z M43.9,53.1
		c-0.7-3.5-3.8-6.9-11-6.9c-7.7,0-9.7,4-10.2,6.9h-4l5.8-10.7h17.7l5.8,10.7H43.9z"/>
</g>
</svg>
