<?xml version="1.0" encoding="utf-8"?>
<!-- Generator: Adobe Illustrator 22.0.0, SVG Export Plug-In . SVG Version: 6.00 Build 0)  -->
<svg version="1.1" id="Capa_1" xmlns="http://www.w3.org/2000/svg" xmlns:xlink="http://www.w3.org/1999/xlink" x="0px" y="0px"
	 viewBox="0 0 66.8 65.6" style="enable-background:new 0 0 66.8 65.6;" xml:space="preserve">
<style type="text/css">
	.st0{fill:#FFFFFF;}
	.st1{fill:none;stroke:#FFFFFF;stroke-width:4;stroke-miterlimit:10;}
</style>
<g>
	<path class="st0" d="M56.5,16.7c0-2.8-2.3-5-5-5s-5,2.3-5,5c0,2.8,2.3,5,5,5S56.5,19.5,56.5,16.7z M51.4,18.8
		c-1.1,0-2.1-0.9-2.1-2.1c0-1.1,0.9-2.1,2.1-2.1s2.1,0.9,2.1,2.1C53.5,17.9,52.6,18.8,51.4,18.8z"/>
	<rect x="44.4" y="20.8" transform="matrix(0.7074 -0.7068 0.7068 0.7074 -2.3385 38.9332)" class="st0" width="3" height="3"/>
	<rect x="55.5" y="9.7" transform="matrix(0.7071 -0.7071 0.7071 0.7071 8.7782 43.5568)" class="st0" width="2.9" height="3"/>
	<rect x="55.5" y="20.8" transform="matrix(0.7071 -0.7071 0.7071 0.7071 0.9365 46.8165)" class="st0" width="3" height="2.9"/>
	<rect x="44.4" y="9.7" transform="matrix(0.7075 -0.7067 0.7067 0.7075 5.5258 35.6841)" class="st0" width="3" height="2.9"/>
	<rect x="49.9" y="23.1" class="st0" width="3" height="2.9"/>
	<rect x="49.9" y="7.4" class="st0" width="3" height="2.9"/>
	<rect x="57.8" y="15.2" class="st0" width="2.9" height="3"/>
	<rect x="42.1" y="15.2" class="st0" width="2.9" height="3"/>
	<path class="st0" d="M60.2,54.1c-0.6-0.6-1.5-0.6-2.1,0c-2.7,2.7-7,2.7-9.7,0c-0.6-0.6-1.5-0.6-2.1,0c-1.3,1.3-3,2-4.8,2
		s-3.5-0.7-4.8-2c-0.3-0.3-0.7-0.4-1.1-0.4c-0.4,0-0.8,0.1-1.1,0.4c-1.3,1.3-3,2-4.8,2c-1.8,0-3.5-0.7-4.8-2c-0.6-0.6-1.5-0.6-2.1,0
		c-2.7,2.7-7,2.7-9.7,0c-0.6-0.6-1.5-0.6-2.1,0c-0.6,0.6-0.6,1.5,0,2.1c1.9,1.9,4.4,2.9,6.9,2.9c2.1,0,4.1-0.7,5.9-2
		c1.7,1.3,3.7,2,5.9,2c2.2,0,4.2-0.7,5.9-2c1.7,1.3,3.7,2,5.9,2s4.2-0.7,5.9-2c1.7,1.3,3.8,2,5.9,2c2.5,0,5-1,6.9-2.9
		C60.8,55.6,60.8,54.7,60.2,54.1z"/>
	<path class="st0" d="M10.1,32.4c2-3,4.4-4.8,7.1-5.2c1.1-0.2,2.2-0.1,3.2,0.1c-2.5,1.4-4.3,4.4-5.3,9l2.9,0.6
		c0.8-3.8,2.3-6.3,4.1-7.2c1.2-0.6,2.3-0.4,3-0.2c1,2.4,3.7,9.6,2.7,14.9c-7.8,1.3-12.2,5.2-12.3,5.3l2,2.2
		c0.1-0.1,12.5-11.1,32.8,0.2l1.5-2.6c-5.5-3.1-10.5-4.6-14.9-5.2c1-9.2-4.6-14.2-7.8-16.3c1.9-1.8,5.9-4.4,11.9-2.4l1-2.8
		c-6.6-2.2-11.4,0.2-14.1,2.4c0.2-1.2,0.7-2.6,1.7-3.8c1.5-1.7,3.8-2.5,7-2.5c0,0,0,0,0.1,0l0-3c0,0-0.1,0-0.1,0
		c-4,0-7.1,1.2-9.2,3.5c-1,1.1-1.6,2.4-2,3.6c-1.4-1.8-2.9-3.2-4.7-3.9c-3.4-1.4-6.2-0.2-6.4-0.2l1.2,2.7c0.1,0,1.9-0.7,4.1,0.2
		c1.4,0.6,2.6,1.7,3.6,3.2c-1.8-0.6-4-1.1-6.4-0.7c-3.6,0.6-6.7,2.7-9.2,6.5L10.1,32.4z M31.1,44c0.2-1.1,0.2-2.3,0.1-3.5l2.8-0.7
		c0.2,1.3,0.2,2.7,0.1,4.2C33,43.9,32,43.9,31.1,44z M33.1,36.9l-2.3,0.6c-0.4-2.1-0.9-4.1-1.5-5.8C30.7,32.9,32.2,34.6,33.1,36.9z"
		/>
</g>
</svg>
