<svg id="Capa_1" xmlns="http://www.w3.org/2000/svg" viewBox="0 0 66.8 65.6"><style>.st0{fill:#fff}</style><path class="st0" d="M56.5 16.7c0-2.8-2.3-5-5-5s-5 2.3-5 5c0 2.8 2.3 5 5 5s5-2.2 5-5zm-5.1 2.1c-1.1 0-2.1-.9-2.1-2.1 0-1.1.9-2.1 2.1-2.1s2.1.9 2.1 2.1c0 1.2-.9 2.1-2.1 2.1z"/><path transform="rotate(-44.976 45.855 22.292)" class="st0" d="M44.4 20.8h3v3h-3z"/><path transform="rotate(-45.001 56.967 11.183)" class="st0" d="M55.5 9.7h2.9v3h-2.9z"/><path transform="rotate(-45.001 56.98 22.279)" class="st0" d="M55.5 20.8h3v2.9h-3z"/><path transform="rotate(-44.968 45.872 11.167)" class="st0" d="M44.4 9.7h3v2.9h-3z"/><path class="st0" d="M49.9 23.1h3V26h-3zm0-15.7h3v2.9h-3zm7.9 7.8h2.9v3h-2.9zm-15.7 0H45v3h-2.9zm18.1 38.9c-.6-.6-1.5-.6-2.1 0-2.7 2.7-7 2.7-9.7 0-.6-.6-1.5-.6-2.1 0-1.3 1.3-3 2-4.8 2s-3.5-.7-4.8-2c-.3-.3-.7-.4-1.1-.4-.4 0-.8.1-1.1.4-1.3 1.3-3 2-4.8 2-1.8 0-3.5-.7-4.8-2-.6-.6-1.5-.6-2.1 0-2.7 2.7-7 2.7-9.7 0-.6-.6-1.5-.6-2.1 0-.6.6-.6 1.5 0 2.1 1.9 1.9 4.4 2.9 6.9 2.9 2.1 0 4.1-.7 5.9-2 1.7 1.3 3.7 2 5.9 2s4.2-.7 5.9-2c1.7 1.3 3.7 2 5.9 2s4.2-.7 5.9-2c1.7 1.3 3.8 2 5.9 2 2.5 0 5-1 6.9-2.9.6-.6.6-1.5 0-2.1zM10.1 32.4c2-3 4.4-4.8 7.1-5.2 1.1-.2 2.2-.1 3.2.1-2.5 1.4-4.3 4.4-5.3 9l2.9.6c.8-3.8 2.3-6.3 4.1-7.2 1.2-.6 2.3-.4 3-.2 1 2.4 3.7 9.6 2.7 14.9-7.8 1.3-12.2 5.2-12.3 5.3l2 2.2c.1-.1 12.5-11.1 32.8.2l1.5-2.6c-5.5-3.1-10.5-4.6-14.9-5.2 1-9.2-4.6-14.2-7.8-16.3C31 26.2 35 23.6 41 25.6l1-2.8c-6.6-2.2-11.4.2-14.1 2.4.2-1.2.7-2.6 1.7-3.8 1.5-1.7 3.8-2.5 7-2.5h.1v-3h-.1c-4 0-7.1 1.2-9.2 3.5-1 1.1-1.6 2.4-2 3.6-1.4-1.8-2.9-3.2-4.7-3.9-3.4-1.4-6.2-.2-6.4-.2l1.2 2.7c.1 0 1.9-.7 4.1.2 1.4.6 2.6 1.7 3.6 3.2-1.8-.6-4-1.1-6.4-.7-3.6.6-6.7 2.7-9.2 6.5l2.5 1.6zm21 11.6c.2-1.1.2-2.3.1-3.5l2.8-.7c.2 1.3.2 2.7.1 4.2-1.1-.1-2.1-.1-3 0zm2-7.1l-2.3.6c-.4-2.1-.9-4.1-1.5-5.8 1.4 1.2 2.9 2.9 3.8 5.2z"/></svg>