<svg xmlns="http://www.w3.org/2000/svg" width="32.981" height="32.981" viewBox="0 0 32.981 32.981"><defs><style>.a{fill:#545759;}.b{fill:#fff;}</style></defs><path class="a" d="M43.981,27.491A16.491,16.491,0,1,0,24.913,43.78V32.257H20.726V27.491h4.187V23.857c0-4.134,2.462-6.415,6.228-6.415a25.3,25.3,0,0,1,3.69.323v4.058H32.75A2.382,2.382,0,0,0,30.065,24.4v3.094h4.572l-.727,4.766H30.068V43.78A16.493,16.493,0,0,0,43.981,27.491Z" transform="translate(-11 -11)"/><path class="b" d="M319.683,221.515l.731-4.766h-4.572v-3.094a2.382,2.382,0,0,1,2.686-2.574h2.08v-4.058a25.3,25.3,0,0,0-3.69-.323c-3.766,0-6.228,2.284-6.228,6.415v3.634H306.5v4.766h4.187v11.524a16.641,16.641,0,0,0,5.155,0V221.515Z" transform="translate(-296.773 -200.259)"/></svg>