<svg xmlns="http://www.w3.org/2000/svg" width="32" height="32" viewBox="0 0 32 32"><defs><style>.a{fill:#545759;}.b{fill:#fff;}</style></defs><g transform="translate(0.048)"><g transform="translate(0 0)"><circle class="a" cx="16" cy="16" r="16" transform="translate(-0.048 0)"/></g><g transform="translate(6.925 9.154)"><path class="b" d="M95.735,130.14a11.159,11.159,0,0,0,11.235-11.235c0-.172,0-.344-.008-.508a8.09,8.09,0,0,0,1.973-2.047,8.014,8.014,0,0,1-2.268.622,3.946,3.946,0,0,0,1.736-2.186,8,8,0,0,1-2.506.958,3.951,3.951,0,0,0-6.829,2.7,3.618,3.618,0,0,0,.106.9,11.2,11.2,0,0,1-8.139-4.127,3.947,3.947,0,0,0,1.228,5.265,3.879,3.879,0,0,1-1.785-.491v.049a3.953,3.953,0,0,0,3.169,3.873,3.937,3.937,0,0,1-1.04.139,3.769,3.769,0,0,1-.745-.074,3.943,3.943,0,0,0,3.685,2.743,7.937,7.937,0,0,1-4.9,1.687,7.183,7.183,0,0,1-.942-.057,11,11,0,0,0,6.035,1.785" transform="translate(-89.7 -114.5)"/></g></g></svg>