<svg xmlns="http://www.w3.org/2000/svg" width="32.754" height="32.754" viewBox="0 0 32.754 32.754"><defs><style>.a{fill:#545759;}</style></defs><path class="a" d="M19.377,3.8A16.377,16.377,0,1,0,35.754,20.177,16.368,16.368,0,0,0,19.377,3.8ZM14.355,29.269H10.524V17.08h3.831ZM12.429,15.453a2.2,2.2,0,1,1,2.2-2.2A2.211,2.211,0,0,1,12.429,15.453ZM28.509,29.269H24.737V23s.2-2.938-2.124-2.938S20.509,23,20.509,23v6.273H16.717V17.1H20.37v1.667a4.3,4.3,0,0,1,3.494-2c2.323,0,4.645.794,4.645,5.439Z" transform="translate(-3 -3.8)"/></svg>