<?xml version="1.0" encoding="utf-8"?>
<!-- Generator: Adobe Illustrator 22.0.0, SVG Export Plug-In . SVG Version: 6.00 Build 0)  -->
<svg version="1.1" id="Layer_1" xmlns="http://www.w3.org/2000/svg" xmlns:xlink="http://www.w3.org/1999/xlink" x="0px" y="0px"
	 viewBox="0 0 1438.4 358" style="enable-background:new 0 0 1438.4 358;" xml:space="preserve">
<style type="text/css">
	.st0{fill:#FFFFFF;}
</style>
<g>
	<path class="st0" d="M184.7,143.1v83.6c0,7.1,4.7,12,11.4,12c6.7,0,11.4-4.9,11.4-12v-83.6c0-7.1-4.7-12-11.4-12
		C189.3,131.1,184.7,136.1,184.7,143.1"/>
	<path class="st0" d="M389.8,164.5c3-9,10.3-13.9,20.6-13.9c10.3,0,17.6,4.9,20.6,13.9c0.8,2.5,1.2,5.4,1.3,9.2l-43.9,0
		C388.6,169.9,389,167,389.8,164.5 M449.6,225.4c2.3-2.2,3.5-5.1,3.5-8.1c0-5.5-4.3-9.8-9.8-9.8c-2.7,0-5.4,1-7.8,3
		c-7.7,5.8-14,8.1-22.6,8.1c-11.5,0-19.6-5.6-22.9-15.6c-1-3.2-1.4-6-1.6-10h57.6c5.5,0,9.5-3.9,9.5-9.3c0-10.2-1.1-18.2-3.5-25.1
		c-5.8-18.2-21-28.6-41.9-28.6c-20.5,0-35.7,10.5-41.7,28.8c-2.3,7-3.3,14.6-3.3,26.2c0,11,1,18.8,3.5,26.1c6,18.7,21.2,29,42.9,29
		C426.2,240,439.3,234.9,449.6,225.4"/>
	<path class="st0" d="M286.4,192.8v9.8c0,10.7-8.5,17.1-22.8,17.1c-12.4,0-18.4-4.3-18.4-13.1c0-9.8,6.5-13.7,22.3-13.7L286.4,192.8
		z M223.1,207.2c0,20.5,14.2,32.7,38,32.7c13.3,0,23-3.4,30.6-10.5l2.4,3.8c2.7,3.7,5.9,5.5,9.9,5.5c6.7,0,11.6-4.6,11.6-11
		c0-2-0.7-4.3-1.8-6.3l-3.5-6.4c-1.2-2.5-1.6-4.1-1.6-9.1v-36c0-26.6-14.2-40.1-42-40.1c-12.8,0-24.4,2.9-31.9,7.9
		c-3.5,2-5.5,5.4-5.5,9.3c0,6.1,4.1,10.1,10.1,10.1c1.7,0,4-0.6,6.2-1.8c4.2-2.2,11.8-4.7,19.4-4.7c15.1,0,21.5,5.8,21.5,19.4l0,3.5
		h-21.6C238,173.6,223.1,185.6,223.1,207.2"/>
	<path class="st0" d="M472.7,228.4c6.2,4.3,19.3,11.6,38,11.6c27.2,0,43.4-13.2,43.4-35.2c0-18.2-10.9-28.7-32.5-31.1l-10.5-1
		c-16-1.6-17.4-6.1-17.4-11c0-7,6.2-11.3,16.5-11.3c7,0,14.1,1.7,21.1,5c2.9,1.3,5.1,1.9,7.4,1.9c5.6,0,10.1-4.5,10.1-10.1
		c0-4-2.2-7.3-6.5-9.6c-8.7-4.9-19.8-7.7-31.3-7.7c-24.9,0-39.7,12.4-39.7,33.1c0,17.7,11.5,28.6,32.3,30.8l10.5,1
		c16.1,1.7,17.4,5.9,17.4,11.7c0,7.8-7.3,12.5-19.4,12.5c-10.9,0-19.3-4.1-26.8-8.5c-2.7-1.5-4.8-2.2-7.1-2.2
		c-6.1,0-10.8,4.6-10.8,10.6C467.4,222.7,469.2,226,472.7,228.4"/>
	<path class="st0" d="M320.4,275.3c21.2,0,31.5-10.7,31.5-32.7v-99.5c0-7.1-4.7-12-11.4-12c-6.7,0-11.4,4.9-11.4,12v99.7
		c0,9.2-1.9,10.3-9.6,11c-6.1,0.5-10.1,4.7-10.1,10.7C309.4,270.9,314,275.3,320.4,275.3"/>
	<path class="st0" d="M156.1,132.4c-4.4,0.3-8.1,2.9-9.8,7c0,0-20.7,50.8-22.8,56.1l-1.1,2.8l-28.8-59.7c-1.9-3.9-5.8-6.4-10.2-6.4
		c-1.7,0-3.3,0.4-4.9,1.1c-5.6,2.7-8,9.4-5.3,15l40.1,83c1.9,3.9,5.9,6.4,10.2,6.4h0l0.4,0c4.6-0.2,8.6-3.1,10.2-7.3
		c0.2-0.6,32.9-81.6,33.2-82.4c2.4-5.7-0.4-12.3-6.1-14.7C159.5,132.6,157.8,132.3,156.1,132.4"/>
	<path class="st0" d="M254.2,15.2c-93.8-34.1-198,14.3-232.2,108c-33.9,93,13.6,196.1,106,231h0c0.1,0,0.2,0,0.2,0.1
		c1.6,0.3,12.7,1.8,12.9-8.4c0.2-11-11.1-11.2-13.1-12.5v0C50.1,299.8,10.8,210.5,40.2,129.8c30.5-83.7,123.6-127,207.4-96.4
		C278,44.4,304,64,322.9,89.9l14,2.6l2.9-12.3C318.5,50.3,289,27.8,254.2,15.2"/>
	<path class="st0" d="M364,95.4c0,13.4-10.9,24.2-24.3,24.2c-13.4,0-24.3-10.9-24.3-24.2c0-13.4,10.9-24.2,24.3-24.2
		C353.1,71.2,364,82,364,95.4"/>
</g>
<path class="st0" d="M1128.4,232.8v-47.3c0-9.3-2.5-16.3-7.3-21.1c-4.9-4.8-12.6-7.2-23.1-7.2c-4.4,0-9.1,0.4-14.2,1
	c-5,0.7-9.7,2-13.9,3.6c-1.4,0.5-1.8,1.6-1.4,3.3l2.1,9c0.2,1,0.5,1.6,1,1.8c0.5,0.2,1.3,0.1,2.4-0.2c2.6-0.9,5.8-1.6,9.8-2.2
	c4.1-0.7,7.8-1,11.2-1c3.2,0,5.9,0.4,7.9,1.1c2,0.6,3.6,1.7,4.8,2.9c1.1,1.3,1.9,2.8,2.4,4.4c0.4,1.7,0.6,3.6,0.6,5.6v2.7h-16.9
	c-6,0-11.1,0.8-15.3,2.4c-4.2,1.6-7.6,3.7-10.2,6.2c-2.6,2.6-4.6,5.6-5.7,9c-1.2,3.4-1.8,6.9-1.8,10.7c0,3.5,0.5,6.9,1.5,10.1
	c1,3.2,2.8,6,5.4,8.4c2.6,2.4,6.1,4.2,10.4,5.7c4.5,1.4,9.9,2.1,16.5,2.1c2.5,0,5-0.1,7.7-0.2c2.6-0.2,5.3-0.5,8.1-0.9
	c2.7-0.4,5.3-1,8-1.7c2.6-0.7,4.9-1.7,7.1-2.7C1127.4,237,1128.4,235.3,1128.4,232.8 M1110.5,226.1c-1.3,0.5-2.7,0.9-4.3,1.2
	c-1.6,0.3-3,0.6-4.5,0.8c-1.4,0.2-2.7,0.4-4,0.4c-1.3,0.1-2.2,0.1-2.9,0.1c-4.9,0-8.7-0.9-11.7-2.7c-2.9-1.8-4.4-5-4.4-9.5
	c0-3.1,0.6-5.6,1.7-7.4c1.2-1.8,2.6-3.1,4.4-4.1c1.8-0.9,3.7-1.5,5.6-1.7c1.9-0.2,3.8-0.3,5.5-0.3h14.5V226.1z M1058.3,240.1
	c0.2-0.3,0.2-1.1,0-2.1l-1-8.8c-0.1-0.9-0.3-1.4-0.7-1.7c-0.3-0.2-1-0.3-1.7-0.2c-0.7,0.1-1.6,0.2-2.7,0.3c-1,0.1-2,0.1-2.8,0.1
	c-2,0-3.4-0.5-4.1-1.5c-0.7-0.9-1-2.8-1-5.6v-91.4c0-1.2-0.3-1.9-0.7-2.2c-0.4-0.4-1.2-0.5-2.3-0.5h-4.9c-3.3,0.3-9.9,2.1-10,12V225
	c0,6.8,1.3,11.6,4,14.4c2.6,2.8,6.7,4.1,12.4,4.1c2.1,0,4.3-0.1,6.9-0.4c2.5-0.3,4.8-0.8,6.9-1.7
	C1057.5,240.9,1058.1,240.4,1058.3,240.1 M1019.5,240.1c0.2-0.3,0.2-1.1,0-2.1l-1.1-8.8c-0.1-0.9-0.3-1.4-0.7-1.7
	c-0.3-0.2-0.9-0.3-1.8-0.2c-0.7,0.1-1.6,0.2-2.6,0.3c-1,0.1-2,0.1-2.8,0.1c-2,0-3.4-0.5-4.1-1.5c-0.7-0.9-1-2.8-1-5.6v-91.4
	c0-1.2-0.3-1.9-0.7-2.2c-0.4-0.4-1.3-0.5-2.4-0.5h-4.9c-3.3,0.3-9.6,2.1-10,11.5v87c0,6.8,1.3,11.6,4,14.4c2.6,2.8,6.7,4.1,12.4,4.1
	c2,0,4.2-0.1,6.8-0.4c2.6-0.3,4.9-0.8,6.9-1.7C1018.8,240.9,1019.4,240.4,1019.5,240.1 M979.7,198.7c0.6-1.8,0.9-4.1,0.9-6.8
	c0-10.9-2.8-19.3-8.4-25.6c-5.6-6.2-14.2-9.3-25.7-9.3c-5.3,0-10.1,1-14.6,3c-4.4,1.9-8.2,4.7-11.4,8.4c-3.1,3.7-5.6,8.3-7.4,13.7
	c-1.8,5.4-2.8,11.6-2.8,18.5c0,14.8,3.3,25.7,9.7,32.4c6.4,6.9,15.7,10.3,27.9,10.3c4.1,0,8.5-0.5,13-1.4c4.6-0.9,8.7-2.6,12.6-5
	c1.4-0.8,1.8-1.9,1.1-3.7l-4.1-8.9c-0.7-1.4-1.8-1.6-3.4-1c-2.3,1.2-5,2.2-8.1,3c-3.1,0.8-6.3,1.2-9.5,1.2c-2.9,0-5.7-0.4-8.2-1.1
	c-2.5-0.7-4.7-2-6.7-3.7c-1.9-1.7-3.4-4-4.5-6.8c-1.1-2.8-1.7-6.2-1.8-10.3h40.2c1.7,0,3.3-0.2,4.8-0.6c1.4-0.4,2.7-1.1,3.8-2.2
	C978.2,201.9,979.1,200.5,979.7,198.7 M963.7,192.5H929c0.1-2.6,0.6-5.2,1.5-7.6c0.9-2.4,2.2-4.5,3.7-6.5c1.5-1.8,3.3-3.3,5.4-4.5
	c2.1-1.1,4.5-1.7,7.2-1.7c3.5,0,6.2,0.6,8.5,1.6c2.1,1,3.8,2.5,5.1,4.4c1.3,1.8,2.1,3.9,2.6,6.3
	C963.5,187.1,963.7,189.7,963.7,192.5 M902,217c1.5-5.4,2.2-11.2,2.2-17.5c0-6.1-0.7-11.7-2-16.9c-1.4-5.3-3.4-9.8-6.2-13.5
	c-2.8-3.7-6.3-6.7-10.7-8.8c-4.4-2.2-9.6-3.2-15.6-3.2c-2.8,0-5.9,0.2-9.4,0.7c-3.5,0.5-6.7,1.2-9.6,2.1l-0.2-30.6
	c0-1.3-0.2-2-0.6-2.4c-0.4-0.4-1.1-0.5-2.2-0.5H843c-3.3,0.3-9.7,2.1-9.9,11.8V234c0,0.9,0.1,1.6,0.5,2.3c0.3,0.5,0.9,1,1.8,1.4
	c4.5,2.2,9.5,3.6,14.9,4.4c5.4,0.9,10.7,1.3,15.9,1.3c6.6,0,12.4-1.1,17.2-3.3c4.8-2.2,8.8-5.3,11.9-9.3
	C898.3,227,900.6,222.4,902,217 M886,200.3c0,5-0.5,9.3-1.4,12.7c-1,3.5-2.5,6.3-4.3,8.5c-1.9,2.2-4,3.8-6.6,4.8
	c-2.6,1-5.5,1.5-8.6,1.5c-2,0-4.4-0.1-7-0.4c-2.6-0.2-5.1-0.8-7.6-1.6v-50.5c3.2-1,6.3-1.7,9.2-2c3-0.3,5.3-0.5,6.9-0.5
	c6.1,0,10.8,2.3,14.3,6.9C884.4,184.1,886,191,886,200.3 M823.3,232.8v-47.3c0-9.3-2.4-16.3-7.3-21.1c-4.9-4.8-12.5-7.2-23-7.2
	c-4.4,0-9.2,0.4-14.2,1c-5,0.7-9.7,2-13.9,3.6c-1.3,0.5-1.8,1.6-1.4,3.3l2.1,9c0.3,1,0.6,1.6,1.2,1.8c0.5,0.2,1.3,0.1,2.3-0.2
	c2.5-0.9,5.8-1.6,9.8-2.2c4-0.7,7.8-1,11.2-1c3.2,0,5.8,0.4,7.8,1.1c2,0.6,3.6,1.7,4.8,2.9c1.1,1.3,1.9,2.8,2.3,4.4
	c0.5,1.7,0.6,3.6,0.6,5.6v2.7h-17c-6,0-11.1,0.8-15.3,2.4c-4.1,1.6-7.5,3.7-10.2,6.2c-2.6,2.6-4.5,5.6-5.6,9
	c-1.2,3.4-1.8,6.9-1.8,10.7c0,3.5,0.5,6.9,1.5,10.1c1,3.2,2.8,6,5.3,8.4c2.6,2.4,6,4.2,10.5,5.7c4.4,1.4,9.9,2.1,16.5,2.1
	c2.4,0,4.9-0.1,7.6-0.2c2.7-0.2,5.4-0.5,8.1-0.9c2.7-0.4,5.4-1,8-1.7c2.5-0.7,5-1.7,7.1-2.7C822.3,237,823.3,235.3,823.3,232.8
	 M805.4,226.1c-1.3,0.5-2.7,0.9-4.3,1.2c-1.6,0.3-3,0.6-4.5,0.8c-1.4,0.2-2.8,0.4-4,0.4c-1.3,0.1-2.2,0.1-2.9,0.1
	c-4.9,0-8.8-0.9-11.7-2.7c-2.9-1.8-4.4-5-4.4-9.5c0-3.1,0.5-5.6,1.7-7.4c1.2-1.8,2.6-3.1,4.4-4.1c1.8-0.9,3.6-1.5,5.6-1.7
	c2-0.2,3.8-0.3,5.6-0.3h14.5V226.1z M751.6,241.4c1-0.5,1.6-1,1.8-1.4c0.2-0.3,0.2-1.1,0-2.1l-1-8.8c-0.1-0.9-0.3-1.4-0.7-1.7
	c-0.3-0.2-0.9-0.3-1.8-0.2c-0.7,0.1-1.6,0.2-2.7,0.3c-1.1,0.1-2,0.1-2.8,0.1c-2,0-3.4-0.5-4-1.5c-0.8-0.9-1.1-2.8-1.1-5.6v-91.4
	c0-1.2-0.2-1.9-0.6-2.2c-0.5-0.4-1.2-0.5-2.3-0.5h-4.9c-3.4,0.3-9.9,2.1-9.9,12.2V225c0,6.8,1.3,11.6,3.9,14.4
	c2.6,2.8,6.7,4.1,12.4,4.1c1.9,0,4.3-0.1,6.9-0.4C747.3,242.8,749.6,242.3,751.6,241.4 M710.5,232.8v-47.3c0-9.3-2.4-16.3-7.3-21.2
	c-4.9-4.8-12.6-7.2-23.1-7.2c-4.4,0-9.2,0.4-14.2,1c-5,0.7-9.7,2-13.9,3.6c-1.4,0.5-1.8,1.6-1.4,3.3l2.1,9c0.2,1,0.5,1.6,1.1,1.8
	c0.4,0.2,1.3,0.1,2.4-0.2c2.6-0.9,5.8-1.6,9.8-2.2c4-0.7,7.7-1,11.2-1c3.2,0,5.8,0.4,7.9,1.1c2,0.6,3.6,1.7,4.7,2.9
	c1.2,1.3,1.9,2.8,2.3,4.4c0.4,1.7,0.6,3.6,0.6,5.6v2.7h-17c-6,0-11.1,0.8-15.3,2.4c-4.2,1.6-7.5,3.7-10.2,6.2
	c-2.6,2.6-4.5,5.6-5.6,9c-1.2,3.4-1.8,6.9-1.8,10.7c0,3.5,0.5,6.9,1.5,10.1c1,3.2,2.8,6,5.3,8.4c2.6,2.4,6.1,4.2,10.5,5.7
	c4.4,1.4,9.9,2.1,16.5,2.1c2.4,0,5-0.1,7.7-0.2c2.6-0.2,5.4-0.5,8.1-0.9c2.7-0.4,5.3-1,8-1.7c2.5-0.7,4.9-1.7,7.1-2.7
	C709.5,237,710.5,235.3,710.5,232.8 M692.6,226.1c-1.3,0.5-2.7,0.9-4.3,1.2c-1.6,0.3-3,0.6-4.5,0.8c-1.3,0.2-2.7,0.4-4,0.4
	c-1.2,0.1-2.3,0.1-3,0.1c-4.8,0-8.7-0.9-11.6-2.7c-2.9-1.8-4.4-4.9-4.4-9.5c0-3.1,0.6-5.6,1.7-7.4c1.2-1.8,2.7-3.1,4.4-4.1
	c1.8-0.9,3.6-1.5,5.6-1.7c1.9-0.2,3.8-0.3,5.5-0.3h14.5V226.1z M645.9,147.4c0.4-0.4,0.7-1.4,0.7-2.8v-9.7c0-1.3-0.2-2.2-0.6-2.8
	c-0.3-0.6-1.2-0.8-2.6-0.8h-42.5c-5.1,0-9.4,0.8-12.8,2.4c-3.5,1.6-6.2,3.7-8.3,6.3c-2.2,2.7-3.7,5.7-4.5,9.1
	c-0.8,3.4-1.3,6.9-1.3,10.7v78.8c0,1.3,0.3,2.2,0.9,2.6c0.6,0.4,1.5,0.7,2.6,0.7h4.8c3.3-0.2,10.2-2,10.2-12.3v-36.3h45.3
	c1.4,0,2.2-0.3,2.5-1c0.4-0.6,0.6-1.5,0.6-2.7v-8.9c0-1.5-0.2-2.4-0.6-2.9c-0.3-0.5-1.1-0.8-2.5-0.8h-45.3v-18.4
	c0-3.4,0.8-5.9,2.4-7.7c1.5-1.7,4.2-2.6,8.1-2.6h40.5C644.7,148.2,645.5,148,645.9,147.4"/>
<path class="st0" d="M1146.7,243.5c5.5,0,10-4.5,10-9.9c0-5.5-4.5-10-10-10c-5.5,0-10,4.5-10,10
	C1136.7,239,1141.2,243.5,1146.7,243.5"/>
<g>
	<path class="st0" d="M1200.1,226.6c3.3,0,6.7-0.4,10-1.3c3.3-0.8,6.1-1.8,8.3-2.8c1.1-0.5,2-0.7,2.4-0.5c0.5,0.2,0.9,0.7,1.2,1.6
		l3.9,9.1c1,1.7,0.7,3-0.9,3.9c-4.3,2.4-8.9,4-13.9,4.8c-5,0.8-9.6,1.2-13.9,1.2c-11.7,0-20.7-3.6-26.9-10.7
		c-6.2-7.1-9.3-17.7-9.3-31.7c0-6.6,0.9-12.6,2.7-18c1.8-5.4,4.3-10,7.6-13.8c3.3-3.8,7.3-6.7,11.9-8.8c4.7-2,9.9-3.1,15.8-3.1
		c4.3,0,8.4,0.4,12.5,1.3c4,0.9,7.8,2.3,11.4,4.2c0.9,0.5,1.5,1,1.7,1.6c0.2,0.5,0.1,1.3-0.5,2.4l-3.9,9.3c-0.4,0.8-0.9,1.4-1.3,1.6
		c-0.5,0.2-1.3,0.1-2.6-0.5c-2.5-0.9-5.1-1.8-7.8-2.4c-2.7-0.7-5.6-1-8.6-1c-3.6,0-6.6,0.8-9.2,2.3c-2.6,1.5-4.7,3.5-6.3,6
		c-1.6,2.5-2.8,5.4-3.5,8.7c-0.7,3.3-1.1,6.7-1.1,10.3c0,3.7,0.3,7.1,0.9,10.3c0.6,3.2,1.7,6,3.2,8.4c1.5,2.4,3.6,4.3,6.2,5.6
		C1192.6,226,1196,226.6,1200.1,226.6z"/>
	<path class="st0" d="M1301.9,199.4c0,13.9-3.2,24.6-9.6,32.1c-6.4,7.5-16,11.2-28.8,11.2c-12.7,0-22.1-3.6-28.3-10.9
		c-6.2-7.3-9.3-17.9-9.3-31.9c0-6.9,0.9-13,2.8-18.4c1.9-5.3,4.5-9.8,7.8-13.5c3.3-3.7,7.3-6.5,12-8.4c4.7-1.9,9.8-2.9,15.5-2.9
		c12.4,0,21.9,3.8,28.3,11.4C1298.6,175.6,1301.9,186.1,1301.9,199.4z M1283.2,199.8c0-3.8-0.3-7.4-0.9-10.7c-0.6-3.4-1.6-6.3-3-8.9
		c-1.4-2.6-3.3-4.6-5.8-6.1c-2.5-1.5-5.6-2.2-9.3-2.2c-3.3,0-6.3,0.7-8.8,2.1c-2.5,1.4-4.6,3.3-6.3,5.8c-1.7,2.4-2.9,5.3-3.7,8.7
		c-0.8,3.4-1.2,7-1.2,10.9c0,8.7,1.4,15.6,4.2,20.6c2.8,5,7.8,7.5,15.1,7.5c3.7,0,6.7-0.8,9.3-2.3s4.5-3.5,6-6.1
		c1.5-2.5,2.6-5.4,3.3-8.8C1282.8,207,1283.2,203.5,1283.2,199.8z"/>
	<path class="st0" d="M1327.3,240.4c-0.4,0.3-1.2,0.5-2.4,0.5h-12.2c-1,0-1.8-0.2-2.3-0.5s-0.7-1-0.7-2.2v-66.7c0-1.9,0.1-3.6,0.4-5
		c0.3-1.5,0.8-2.7,1.5-3.8c0.7-1.1,1.8-2,3.2-2.7c1.4-0.7,3.2-1.4,5.4-1.9c0.7-0.1,1.9-0.3,3.5-0.5c1.6-0.2,3.3-0.4,5.1-0.5
		c1.8-0.1,3.6-0.2,5.4-0.3c1.8-0.1,3.3-0.2,4.5-0.2c6.4,0,11.8,0.6,16.3,1.9c4.5,1.3,8.5,3.2,11.9,6c3.7-2.4,8-4.3,12.9-5.7
		c5-1.4,10.3-2.1,15.9-2.1c6.5,0,12,0.9,16.6,2.8c4.6,1.9,8.3,4.5,11.2,7.8c2.9,3.3,5,7.4,6.4,12.2c1.4,4.8,2,10,2,15.6v43.1
		c0,1.2-0.2,1.9-0.7,2.2s-1.3,0.5-2.4,0.5h-12.1c-1,0-1.8-0.2-2.3-0.5s-0.7-1-0.7-2.2v-40.8c0-8.5-1.5-14.7-4.6-18.8
		c-3-4.1-8.3-6.1-15.9-6.1c-2.7,0-5.8,0.3-9.1,1c-3.4,0.7-6.1,1.6-8.2,2.7c1.3,2.9,2.1,6.1,2.5,9.4c0.4,3.3,0.6,7,0.6,11v41.6
		c0,1.2-0.2,1.9-0.7,2.2s-1.3,0.5-2.4,0.5h-12.1c-1,0-1.8-0.2-2.3-0.5s-0.7-1-0.7-2.2v-41.9c0-3.7-0.3-7-0.9-9.9
		c-0.6-2.9-1.6-5.4-3.1-7.5c-1.5-2.1-3.7-3.7-6.4-4.9c-2.8-1.1-6.4-1.7-10.7-1.7c-0.6,0-1.5,0-2.5,0.1c-1,0.1-2.1,0.1-3.3,0.2
		c-1.2,0.1-2.3,0.2-3.4,0.3c-1.1,0.2-2,0.3-2.7,0.4v64.9C1327.9,239.4,1327.7,240.1,1327.3,240.4z"/>
</g>
</svg>
