<svg id="Layer_1" xmlns="http://www.w3.org/2000/svg" viewBox="0 0 1438.4 358"><style>.st0{fill:#fff}</style><path class="st0" d="M184.7 143.1v83.6c0 7.1 4.7 12 11.4 12s11.4-4.9 11.4-12v-83.6c0-7.1-4.7-12-11.4-12-6.8 0-11.4 5-11.4 12m205.1 21.4c3-9 10.3-13.9 20.6-13.9s17.6 4.9 20.6 13.9c.8 2.5 1.2 5.4 1.3 9.2h-43.9c.2-3.8.6-6.7 1.4-9.2m59.8 60.9c2.3-2.2 3.5-5.1 3.5-8.1 0-5.5-4.3-9.8-9.8-9.8-2.7 0-5.4 1-7.8 3-7.7 5.8-14 8.1-22.6 8.1-11.5 0-19.6-5.6-22.9-15.6-1-3.2-1.4-6-1.6-10H446c5.5 0 9.5-3.9 9.5-9.3 0-10.2-1.1-18.2-3.5-25.1-5.8-18.2-21-28.6-41.9-28.6-20.5 0-35.7 10.5-41.7 28.8-2.3 7-3.3 14.6-3.3 26.2 0 11 1 18.8 3.5 26.1 6 18.7 21.2 29 42.9 29 14.7-.1 27.8-5.2 38.1-14.7m-163.2-32.6v9.8c0 10.7-8.5 17.1-22.8 17.1-12.4 0-18.4-4.3-18.4-13.1 0-9.8 6.5-13.7 22.3-13.7l18.9-.1zm-63.3 14.4c0 20.5 14.2 32.7 38 32.7 13.3 0 23-3.4 30.6-10.5l2.4 3.8c2.7 3.7 5.9 5.5 9.9 5.5 6.7 0 11.6-4.6 11.6-11 0-2-.7-4.3-1.8-6.3l-3.5-6.4c-1.2-2.5-1.6-4.1-1.6-9.1v-36c0-26.6-14.2-40.1-42-40.1-12.8 0-24.4 2.9-31.9 7.9-3.5 2-5.5 5.4-5.5 9.3 0 6.1 4.1 10.1 10.1 10.1 1.7 0 4-.6 6.2-1.8 4.2-2.2 11.8-4.7 19.4-4.7 15.1 0 21.5 5.8 21.5 19.4v3.5h-21.6c-26.9.1-41.8 12.1-41.8 33.7m249.6 21.2c6.2 4.3 19.3 11.6 38 11.6 27.2 0 43.4-13.2 43.4-35.2 0-18.2-10.9-28.7-32.5-31.1l-10.5-1c-16-1.6-17.4-6.1-17.4-11 0-7 6.2-11.3 16.5-11.3 7 0 14.1 1.7 21.1 5 2.9 1.3 5.1 1.9 7.4 1.9 5.6 0 10.1-4.5 10.1-10.1 0-4-2.2-7.3-6.5-9.6-8.7-4.9-19.8-7.7-31.3-7.7-24.9 0-39.7 12.4-39.7 33.1 0 17.7 11.5 28.6 32.3 30.8l10.5 1c16.1 1.7 17.4 5.9 17.4 11.7 0 7.8-7.3 12.5-19.4 12.5-10.9 0-19.3-4.1-26.8-8.5-2.7-1.5-4.8-2.2-7.1-2.2-6.1 0-10.8 4.6-10.8 10.6 0 3.8 1.8 7.1 5.3 9.5"/><path class="st0" d="M320.4 275.3c21.2 0 31.5-10.7 31.5-32.7v-99.5c0-7.1-4.7-12-11.4-12s-11.4 4.9-11.4 12v99.7c0 9.2-1.9 10.3-9.6 11-6.1.5-10.1 4.7-10.1 10.7 0 6.4 4.6 10.8 11 10.8M156.1 132.4c-4.4.3-8.1 2.9-9.8 7 0 0-20.7 50.8-22.8 56.1l-1.1 2.8-28.8-59.7c-1.9-3.9-5.8-6.4-10.2-6.4-1.7 0-3.3.4-4.9 1.1-5.6 2.7-8 9.4-5.3 15l40.1 83c1.9 3.9 5.9 6.4 10.2 6.4h.4c4.6-.2 8.6-3.1 10.2-7.3.2-.6 32.9-81.6 33.2-82.4 2.4-5.7-.4-12.3-6.1-14.7-1.7-.7-3.4-1-5.1-.9"/><path class="st0" d="M254.2 15.2c-93.8-34.1-198 14.3-232.2 108-33.9 93 13.6 196.1 106 231 .1 0 .2 0 .2.1 1.6.3 12.7 1.8 12.9-8.4.2-11-11.1-11.2-13.1-12.5-77.9-33.6-117.2-122.9-87.8-203.6 30.5-83.7 123.6-127 207.4-96.4C278 44.4 304 64 322.9 89.9l14 2.6 2.9-12.3c-21.3-29.9-50.8-52.4-85.6-65"/><path class="st0" d="M364 95.4c0 13.4-10.9 24.2-24.3 24.2s-24.3-10.9-24.3-24.2c0-13.4 10.9-24.2 24.3-24.2S364 82 364 95.4m764.4 137.4v-47.3c0-9.3-2.5-16.3-7.3-21.1-4.9-4.8-12.6-7.2-23.1-7.2-4.4 0-9.1.4-14.2 1-5 .7-9.7 2-13.9 3.6-1.4.5-1.8 1.6-1.4 3.3l2.1 9c.2 1 .5 1.6 1 1.8.5.2 1.3.1 2.4-.2 2.6-.9 5.8-1.6 9.8-2.2 4.1-.7 7.8-1 11.2-1 3.2 0 5.9.4 7.9 1.1 2 .6 3.6 1.7 4.8 2.9 1.1 1.3 1.9 2.8 2.4 4.4.4 1.7.6 3.6.6 5.6v2.7h-16.9c-6 0-11.1.8-15.3 2.4-4.2 1.6-7.6 3.7-10.2 6.2-2.6 2.6-4.6 5.6-5.7 9-1.2 3.4-1.8 6.9-1.8 10.7 0 3.5.5 6.9 1.5 10.1 1 3.2 2.8 6 5.4 8.4 2.6 2.4 6.1 4.2 10.4 5.7 4.5 1.4 9.9 2.1 16.5 2.1 2.5 0 5-.1 7.7-.2 2.6-.2 5.3-.5 8.1-.9 2.7-.4 5.3-1 8-1.7 2.6-.7 4.9-1.7 7.1-2.7 1.9-1.3 2.9-3 2.9-5.5m-17.9-6.7c-1.3.5-2.7.9-4.3 1.2-1.6.3-3 .6-4.5.8-1.4.2-2.7.4-4 .4-1.3.1-2.2.1-2.9.1-4.9 0-8.7-.9-11.7-2.7-2.9-1.8-4.4-5-4.4-9.5 0-3.1.6-5.6 1.7-7.4 1.2-1.8 2.6-3.1 4.4-4.1 1.8-.9 3.7-1.5 5.6-1.7 1.9-.2 3.8-.3 5.5-.3h14.5v23.2zm-52.2 14c.2-.3.2-1.1 0-2.1l-1-8.8c-.1-.9-.3-1.4-.7-1.7-.3-.2-1-.3-1.7-.2-.7.1-1.6.2-2.7.3-1 .1-2 .1-2.8.1-2 0-3.4-.5-4.1-1.5-.7-.9-1-2.8-1-5.6v-91.4c0-1.2-.3-1.9-.7-2.2-.4-.4-1.2-.5-2.3-.5h-4.9c-3.3.3-9.9 2.1-10 12V225c0 6.8 1.3 11.6 4 14.4 2.6 2.8 6.7 4.1 12.4 4.1 2.1 0 4.3-.1 6.9-.4 2.5-.3 4.8-.8 6.9-1.7.9-.5 1.5-1 1.7-1.3m-38.8 0c.2-.3.2-1.1 0-2.1l-1.1-8.8c-.1-.9-.3-1.4-.7-1.7-.3-.2-.9-.3-1.8-.2-.7.1-1.6.2-2.6.3-1 .1-2 .1-2.8.1-2 0-3.4-.5-4.1-1.5-.7-.9-1-2.8-1-5.6v-91.4c0-1.2-.3-1.9-.7-2.2-.4-.4-1.3-.5-2.4-.5h-4.9c-3.3.3-9.6 2.1-10 11.5v87c0 6.8 1.3 11.6 4 14.4 2.6 2.8 6.7 4.1 12.4 4.1 2 0 4.2-.1 6.8-.4 2.6-.3 4.9-.8 6.9-1.7 1.3-.5 1.9-1 2-1.3m-39.8-41.4c.6-1.8.9-4.1.9-6.8 0-10.9-2.8-19.3-8.4-25.6-5.6-6.2-14.2-9.3-25.7-9.3-5.3 0-10.1 1-14.6 3-4.4 1.9-8.2 4.7-11.4 8.4-3.1 3.7-5.6 8.3-7.4 13.7-1.8 5.4-2.8 11.6-2.8 18.5 0 14.8 3.3 25.7 9.7 32.4 6.4 6.9 15.7 10.3 27.9 10.3 4.1 0 8.5-.5 13-1.4 4.6-.9 8.7-2.6 12.6-5 1.4-.8 1.8-1.9 1.1-3.7l-4.1-8.9c-.7-1.4-1.8-1.6-3.4-1-2.3 1.2-5 2.2-8.1 3-3.1.8-6.3 1.2-9.5 1.2-2.9 0-5.7-.4-8.2-1.1-2.5-.7-4.7-2-6.7-3.7-1.9-1.7-3.4-4-4.5-6.8s-1.7-6.2-1.8-10.3h40.2c1.7 0 3.3-.2 4.8-.6 1.4-.4 2.7-1.1 3.8-2.2 1.1-.9 2-2.3 2.6-4.1m-16-6.2H929c.1-2.6.6-5.2 1.5-7.6.9-2.4 2.2-4.5 3.7-6.5 1.5-1.8 3.3-3.3 5.4-4.5 2.1-1.1 4.5-1.7 7.2-1.7 3.5 0 6.2.6 8.5 1.6 2.1 1 3.8 2.5 5.1 4.4 1.3 1.8 2.1 3.9 2.6 6.3.5 2.6.7 5.2.7 8M902 217c1.5-5.4 2.2-11.2 2.2-17.5 0-6.1-.7-11.7-2-16.9-1.4-5.3-3.4-9.8-6.2-13.5-2.8-3.7-6.3-6.7-10.7-8.8-4.4-2.2-9.6-3.2-15.6-3.2-2.8 0-5.9.2-9.4.7-3.5.5-6.7 1.2-9.6 2.1l-.2-30.6c0-1.3-.2-2-.6-2.4-.4-.4-1.1-.5-2.2-.5H843c-3.3.3-9.7 2.1-9.9 11.8V234c0 .9.1 1.6.5 2.3.3.5.9 1 1.8 1.4 4.5 2.2 9.5 3.6 14.9 4.4 5.4.9 10.7 1.3 15.9 1.3 6.6 0 12.4-1.1 17.2-3.3 4.8-2.2 8.8-5.3 11.9-9.3 3-3.8 5.3-8.4 6.7-13.8m-16-16.7c0 5-.5 9.3-1.4 12.7-1 3.5-2.5 6.3-4.3 8.5-1.9 2.2-4 3.8-6.6 4.8-2.6 1-5.5 1.5-8.6 1.5-2 0-4.4-.1-7-.4-2.6-.2-5.1-.8-7.6-1.6v-50.5c3.2-1 6.3-1.7 9.2-2 3-.3 5.3-.5 6.9-.5 6.1 0 10.8 2.3 14.3 6.9 3.5 4.4 5.1 11.3 5.1 20.6m-62.7 32.5v-47.3c0-9.3-2.4-16.3-7.3-21.1-4.9-4.8-12.5-7.2-23-7.2-4.4 0-9.2.4-14.2 1-5 .7-9.7 2-13.9 3.6-1.3.5-1.8 1.6-1.4 3.3l2.1 9c.3 1 .6 1.6 1.2 1.8.5.2 1.3.1 2.3-.2 2.5-.9 5.8-1.6 9.8-2.2 4-.7 7.8-1 11.2-1 3.2 0 5.8.4 7.8 1.1 2 .6 3.6 1.7 4.8 2.9 1.1 1.3 1.9 2.8 2.3 4.4.5 1.7.6 3.6.6 5.6v2.7h-17c-6 0-11.1.8-15.3 2.4-4.1 1.6-7.5 3.7-10.2 6.2-2.6 2.6-4.5 5.6-5.6 9-1.2 3.4-1.8 6.9-1.8 10.7 0 3.5.5 6.9 1.5 10.1 1 3.2 2.8 6 5.3 8.4 2.6 2.4 6 4.2 10.5 5.7 4.4 1.4 9.9 2.1 16.5 2.1 2.4 0 4.9-.1 7.6-.2 2.7-.2 5.4-.5 8.1-.9 2.7-.4 5.4-1 8-1.7 2.5-.7 5-1.7 7.1-2.7 2-1.3 3-3 3-5.5m-17.9-6.7c-1.3.5-2.7.9-4.3 1.2-1.6.3-3 .6-4.5.8-1.4.2-2.8.4-4 .4-1.3.1-2.2.1-2.9.1-4.9 0-8.8-.9-11.7-2.7-2.9-1.8-4.4-5-4.4-9.5 0-3.1.5-5.6 1.7-7.4 1.2-1.8 2.6-3.1 4.4-4.1 1.8-.9 3.6-1.5 5.6-1.7 2-.2 3.8-.3 5.6-.3h14.5v23.2zm-53.8 15.3c1-.5 1.6-1 1.8-1.4.2-.3.2-1.1 0-2.1l-1-8.8c-.1-.9-.3-1.4-.7-1.7-.3-.2-.9-.3-1.8-.2-.7.1-1.6.2-2.7.3-1.1.1-2 .1-2.8.1-2 0-3.4-.5-4-1.5-.8-.9-1.1-2.8-1.1-5.6v-91.4c0-1.2-.2-1.9-.6-2.2-.5-.4-1.2-.5-2.3-.5h-4.9c-3.4.3-9.9 2.1-9.9 12.2V225c0 6.8 1.3 11.6 3.9 14.4 2.6 2.8 6.7 4.1 12.4 4.1 1.9 0 4.3-.1 6.9-.4 2.5-.3 4.8-.8 6.8-1.7m-41.1-8.6v-47.3c0-9.3-2.4-16.3-7.3-21.2-4.9-4.8-12.6-7.2-23.1-7.2-4.4 0-9.2.4-14.2 1-5 .7-9.7 2-13.9 3.6-1.4.5-1.8 1.6-1.4 3.3l2.1 9c.2 1 .5 1.6 1.1 1.8.4.2 1.3.1 2.4-.2 2.6-.9 5.8-1.6 9.8-2.2 4-.7 7.7-1 11.2-1 3.2 0 5.8.4 7.9 1.1 2 .6 3.6 1.7 4.7 2.9 1.2 1.3 1.9 2.8 2.3 4.4.4 1.7.6 3.6.6 5.6v2.7h-17c-6 0-11.1.8-15.3 2.4-4.2 1.6-7.5 3.7-10.2 6.2-2.6 2.6-4.5 5.6-5.6 9-1.2 3.4-1.8 6.9-1.8 10.7 0 3.5.5 6.9 1.5 10.1 1 3.2 2.8 6 5.3 8.4 2.6 2.4 6.1 4.2 10.5 5.7 4.4 1.4 9.9 2.1 16.5 2.1 2.4 0 5-.1 7.7-.2 2.6-.2 5.4-.5 8.1-.9 2.7-.4 5.3-1 8-1.7 2.5-.7 4.9-1.7 7.1-2.7 2-1.2 3-2.9 3-5.4m-17.9-6.7c-1.3.5-2.7.9-4.3 1.2-1.6.3-3 .6-4.5.8-1.3.2-2.7.4-4 .4-1.2.1-2.3.1-3 .1-4.8 0-8.7-.9-11.6-2.7-2.9-1.8-4.4-4.9-4.4-9.5 0-3.1.6-5.6 1.7-7.4 1.2-1.8 2.7-3.1 4.4-4.1 1.8-.9 3.6-1.5 5.6-1.7 1.9-.2 3.8-.3 5.5-.3h14.5v23.2zm-46.7-78.7c.4-.4.7-1.4.7-2.8v-9.7c0-1.3-.2-2.2-.6-2.8-.3-.6-1.2-.8-2.6-.8h-42.5c-5.1 0-9.4.8-12.8 2.4-3.5 1.6-6.2 3.7-8.3 6.3-2.2 2.7-3.7 5.7-4.5 9.1-.8 3.4-1.3 6.9-1.3 10.7v78.8c0 1.3.3 2.2.9 2.6.6.4 1.5.7 2.6.7h4.8c3.3-.2 10.2-2 10.2-12.3v-36.3h45.3c1.4 0 2.2-.3 2.5-1 .4-.6.6-1.5.6-2.7v-8.9c0-1.5-.2-2.4-.6-2.9-.3-.5-1.1-.8-2.5-.8h-45.3v-18.4c0-3.4.8-5.9 2.4-7.7 1.5-1.7 4.2-2.6 8.1-2.6h40.5c1.2-.1 2-.3 2.4-.9m500.8 96.1c5.5 0 10-4.5 10-9.9 0-5.5-4.5-10-10-10s-10 4.5-10 10c0 5.4 4.5 9.9 10 9.9m53.4-16.9c3.3 0 6.7-.4 10-1.3 3.3-.8 6.1-1.8 8.3-2.8 1.1-.5 2-.7 2.4-.5.5.2.9.7 1.2 1.6l3.9 9.1c1 1.7.7 3-.9 3.9-4.3 2.4-8.9 4-13.9 4.8-5 .8-9.6 1.2-13.9 1.2-11.7 0-20.7-3.6-26.9-10.7-6.2-7.1-9.3-17.7-9.3-31.7 0-6.6.9-12.6 2.7-18 1.8-5.4 4.3-10 7.6-13.8 3.3-3.8 7.3-6.7 11.9-8.8 4.7-2 9.9-3.1 15.8-3.1 4.3 0 8.4.4 12.5 1.3 4 .9 7.8 2.3 11.4 4.2.9.5 1.5 1 1.7 1.6.2.5.1 1.3-.5 2.4l-3.9 9.3c-.4.8-.9 1.4-1.3 1.6-.5.2-1.3.1-2.6-.5-2.5-.9-5.1-1.8-7.8-2.4-2.7-.7-5.6-1-8.6-1-3.6 0-6.6.8-9.2 2.3-2.6 1.5-4.7 3.5-6.3 6-1.6 2.5-2.8 5.4-3.5 8.7-.7 3.3-1.1 6.7-1.1 10.3 0 3.7.3 7.1.9 10.3.6 3.2 1.7 6 3.2 8.4 1.5 2.4 3.6 4.3 6.2 5.6 2.5 1.4 5.9 2 10 2z"/><path class="st0" d="M1301.9 199.4c0 13.9-3.2 24.6-9.6 32.1-6.4 7.5-16 11.2-28.8 11.2-12.7 0-22.1-3.6-28.3-10.9-6.2-7.3-9.3-17.9-9.3-31.9 0-6.9.9-13 2.8-18.4 1.9-5.3 4.5-9.8 7.8-13.5 3.3-3.7 7.3-6.5 12-8.4 4.7-1.9 9.8-2.9 15.5-2.9 12.4 0 21.9 3.8 28.3 11.4 6.3 7.5 9.6 18 9.6 31.3zm-18.7.4c0-3.8-.3-7.4-.9-10.7-.6-3.4-1.6-6.3-3-8.9-1.4-2.6-3.3-4.6-5.8-6.1s-5.6-2.2-9.3-2.2c-3.3 0-6.3.7-8.8 2.1-2.5 1.4-4.6 3.3-6.3 5.8-1.7 2.4-2.9 5.3-3.7 8.7-.8 3.4-1.2 7-1.2 10.9 0 8.7 1.4 15.6 4.2 20.6 2.8 5 7.8 7.5 15.1 7.5 3.7 0 6.7-.8 9.3-2.3s4.5-3.5 6-6.1c1.5-2.5 2.6-5.4 3.3-8.8.7-3.3 1.1-6.8 1.1-10.5zm44.1 40.6c-.4.3-1.2.5-2.4.5h-12.2c-1 0-1.8-.2-2.3-.5s-.7-1-.7-2.2v-66.7c0-1.9.1-3.6.4-5 .3-1.5.8-2.7 1.5-3.8.7-1.1 1.8-2 3.2-2.7 1.4-.7 3.2-1.4 5.4-1.9.7-.1 1.9-.3 3.5-.5s3.3-.4 5.1-.5l5.4-.3c1.8-.1 3.3-.2 4.5-.2 6.4 0 11.8.6 16.3 1.9 4.5 1.3 8.5 3.2 11.9 6 3.7-2.4 8-4.3 12.9-5.7 5-1.4 10.3-2.1 15.9-2.1 6.5 0 12 .9 16.6 2.8 4.6 1.9 8.3 4.5 11.2 7.8 2.9 3.3 5 7.4 6.4 12.2 1.4 4.8 2 10 2 15.6v43.1c0 1.2-.2 1.9-.7 2.2s-1.3.5-2.4.5h-12.1c-1 0-1.8-.2-2.3-.5s-.7-1-.7-2.2v-40.8c0-8.5-1.5-14.7-4.6-18.8-3-4.1-8.3-6.1-15.9-6.1-2.7 0-5.8.3-9.1 1-3.4.7-6.1 1.6-8.2 2.7 1.3 2.9 2.1 6.1 2.5 9.4.4 3.3.6 7 .6 11v41.6c0 1.2-.2 1.9-.7 2.2s-1.3.5-2.4.5h-12.1c-1 0-1.8-.2-2.3-.5s-.7-1-.7-2.2v-41.9c0-3.7-.3-7-.9-9.9-.6-2.9-1.6-5.4-3.1-7.5-1.5-2.1-3.7-3.7-6.4-4.9-2.8-1.1-6.4-1.7-10.7-1.7-.6 0-1.5 0-2.5.1s-2.1.1-3.3.2c-1.2.1-2.3.2-3.4.3-1.1.2-2 .3-2.7.4v64.9c.1 1.2-.1 1.9-.5 2.2z"/></svg>