<svg id="Capa_1" data-name="Capa 1" xmlns="http://www.w3.org/2000/svg" viewBox="0 0 99 99"><defs><style>.cls-1,.cls-3{fill:none;stroke-miterlimit:10;}.cls-1{stroke:#aaa;}.cls-2{fill:#63ae2b;}.cls-3{stroke:#63ae2b;stroke-width:2px;}</style></defs><title>Iconos Footer</title><circle class="cls-1" cx="49.5" cy="49.5" r="47.75"/><ellipse class="cls-2" cx="47.88" cy="44.43" rx="1.62" ry="1.23"/><ellipse class="cls-2" cx="38.66" cy="37.64" rx="2.11" ry="3.5"/><ellipse class="cls-2" cx="58.77" cy="37.49" rx="2.11" ry="3.5"/><path class="cls-2" d="M40.23,32.59a9.08,9.08,0,0,1,1,.86l5.35-3.05,4.18,3.05s6.54,1.6,6.59,1.36-.53-4.9-.53-4.9l-5.63-4.6-7.27.38-3.66,5.73Z"/><path class="cls-2" d="M53.05,71.08l-6.53-.19c-.05-.84.95-11.66.95-11.66s-1.63-3.08-1.83-3.38L49.28,53l3.46,2.82a24.4,24.4,0,0,1-1.89,3.5S53.09,70.26,53.05,71.08Z"/><path class="cls-2" d="M43.71,48.68s6.22,6.81,10.29,0"/><path class="cls-3" d="M31.18,70.69V58.42c3.25-4.26,15.53-16.06,35.94-.41L66.7,70.69Z"/><path class="cls-2" d="M37.75,41.72v1a2.55,2.55,0,0,0,2.55,2.55h.75a9.06,9.06,0,0,0,1.42,2.21l.31.33c.13.09.07.07.07.07l1.74,1.63h8.86l1.3-1.63A9.31,9.31,0,0,0,57.26,43l.19-1.09H59a2.55,2.55,0,0,0,2.55-2.55V34a12.75,12.75,0,0,0-25.49,0v5.35A2.56,2.56,0,0,0,37.75,41.72Zm2.55,1.84a.85.85,0,0,1-.85-.85v-.85h.7L40.33,43c0,.2.07.41.12.61Zm15.59-2.71h0c-.08.52-.14.86-.3,1.81a7.2,7.2,0,0,1-5.12,5.8,7,7,0,0,1-3.34,0A6.86,6.86,0,0,1,43,45.26h4.21a2.43,2.43,0,0,1-.17-.85,2.52,2.52,0,0,1,.17-.85h-5a47.3,47.3,0,0,1-1-8.24l1.14-1.53a6,6,0,0,1,4.42-2.37,15.33,15.33,0,0,0,8.37,4.06l1.25.18C56.3,37.44,56.13,39.22,55.89,40.85Zm.55-6.91h0l-1.07-.15A13.66,13.66,0,0,1,47.7,30a.86.86,0,0,0-.6-.25,7.68,7.68,0,0,0-5.91,2.8A6.91,6.91,0,0,1,48,26.31h1.52a6.91,6.91,0,0,1,6.88,6.92Zm3.4,5.37a.85.85,0,0,1-.85.85H57.7c.21-1.67.36-3.45.41-5.2a.76.76,0,0,0,0-.15h1.72Zm-11-16.39a11.06,11.06,0,0,1,11,10.19H58.14a8.6,8.6,0,0,0-8.58-8.49H48a8.6,8.6,0,0,0-8.59,8.49H37.78A11,11,0,0,1,48.8,22.92Zm-11,11.89h1.73v.27h0c0,1.7.2,3.44.41,5.07H38.6a.85.85,0,0,1-.85-.85Z"/><ellipse class="cls-3" cx="48.82" cy="51.55" rx="4.23" ry="2.05"/><line class="cls-3" x1="37.95" y1="66.63" x2="37.95" y2="71.08"/><line class="cls-3" x1="59.65" y1="67.11" x2="59.65" y2="71.56"/></svg>