<svg id="Capa_1" data-name="Capa 1" xmlns="http://www.w3.org/2000/svg" viewBox="0 0 99 99"><defs><style>.cls-1{fill:none;stroke:#aaa;stroke-miterlimit:10;}.cls-2{fill:#63ae2b;}</style></defs><title>Iconos Footer</title><circle class="cls-1" cx="49.5" cy="49.5" r="47.75"/><path class="cls-2" d="M28.61,64.1H38.85c.28,0,.51-.38.51-.85v-3.4c0-.47-.23-.85-.51-.85H28.61c-.28,0-.51.38-.51.85v3.4c0,.47.23.85.51.85Zm.51-3.4h9.22v1.7H29.12Zm0,0"/><path class="cls-2" d="M70.7,34.68H33.2a4.08,4.08,0,0,0-4.08,4.08v.81H28.3a4.08,4.08,0,0,0-4.07,4.08V63.21a4.08,4.08,0,0,0,4.07,4.08H65.8a4.08,4.08,0,0,0,4.08-4.08V62.4h.82a4.08,4.08,0,0,0,4.07-4.08V38.76a4.08,4.08,0,0,0-4.07-4.08Zm-44.84,9A2.45,2.45,0,0,1,28.3,41.2H65.8a2.45,2.45,0,0,1,2.45,2.45v.81H25.86Zm0,2.44H68.25v3.26H25.86ZM68.25,63.21a2.45,2.45,0,0,1-2.45,2.45H28.3a2.45,2.45,0,0,1-2.44-2.45V51H68.25Zm4.89-4.89a2.45,2.45,0,0,1-2.44,2.45h-.82V43.65a4.08,4.08,0,0,0-4.08-4.08h-35v-.81a2.45,2.45,0,0,1,2.45-2.45H70.7a2.45,2.45,0,0,1,2.44,2.45Zm0,0"/><rect class="cls-2" x="28.71" y="53.42" width="7.67" height="1.85"/><rect class="cls-2" x="39.38" y="53.42" width="7.67" height="1.85"/><rect class="cls-2" x="49.77" y="53.42" width="7.67" height="1.85"/><rect class="cls-2" x="59.81" y="53.42" width="7.67" height="1.85"/><rect class="cls-2" x="24.71" y="45.07" width="44.14" height="5.41"/></svg>