<svg id="Capa_1" data-name="Capa 1" xmlns="http://www.w3.org/2000/svg" viewBox="0 0 99 99"><defs><style>.cls-1,.cls-3{fill:none;stroke-miterlimit:10;}.cls-1{stroke:#aaa;}.cls-2{fill:#63ae2b;}.cls-3{stroke:#63ae2b;}</style></defs><title>Iconos Footer</title><circle class="cls-1" cx="49.5" cy="49.5" r="47.75"/><path class="cls-2" d="M70.24,36.09H58.78V32.24a3.72,3.72,0,0,0-3.58-3.85H48a3.72,3.72,0,0,0-3.58,3.85v3.85H33A3.73,3.73,0,0,0,29.43,40V63.07A3.72,3.72,0,0,0,33,66.92H70.24a3.74,3.74,0,0,0,3.58-3.85V40A3.74,3.74,0,0,0,70.24,36.09ZM45.89,32.24A2.24,2.24,0,0,1,48,29.93H55.2a2.23,2.23,0,0,1,2.15,2.31v3.85H45.89ZM72.38,63.07a2.23,2.23,0,0,1-2.14,2.31H33a2.24,2.24,0,0,1-2.15-2.31V40A2.25,2.25,0,0,1,33,37.63H70.24A2.24,2.24,0,0,1,72.38,40Z"/><rect class="cls-2" x="35.33" y="36.09" width="4.77" height="30.02"/><rect class="cls-2" x="63.56" y="36.49" width="4.77" height="30.02"/><path class="cls-2" d="M13.71,46.51a36,36,0,0,1,71.83,0h1a37.05,37.05,0,0,0-73.86,0Z"/><path class="cls-2" d="M85.66,50a36,36,0,0,1-72.07,0h-1a37.05,37.05,0,0,0,74.1,0Z"/><path class="cls-3" d="M8.7,53.66C9.1,53.5,13.12,50,13.12,50l4.34,3.68"/><path class="cls-3" d="M90.3,43.37c-.4.16-4.42,3.68-4.42,3.68l-4.34-3.68"/></svg>