<?xml version="1.0" encoding="utf-8"?>
<!-- Generator: Adobe Illustrator 23.1.1, SVG Export Plug-In . SVG Version: 6.00 Build 0)  -->
<svg version="1.1" id="Layer_1" xmlns="http://www.w3.org/2000/svg" xmlns:xlink="http://www.w3.org/1999/xlink" x="0px" y="0px"
	 viewBox="0 0 282 220" style="enable-background:new 0 0 282 220;" xml:space="preserve">
<style type="text/css">
	.st0{fill:none;stroke:#FFFFFF;stroke-width:10;}
	.st1{fill:none;stroke:#FFFFFF;stroke-width:10;stroke-linejoin:round;}
</style>
<g id="Group_331" transform="translate(15154.072 16231.225)">
	<g id="Group_330" transform="translate(-16984.197 -16275.652)">
		<path id="Path_69" class="st0" d="M1851.04,93.03h39.99V53.91h155.83l1.09,39.12h43.08c5.64,0,10.21,4.57,10.21,10.21v139.97
			c0,5.64-4.57,10.21-10.21,10.21h-239.99c-5.64,0-10.21-4.57-10.21-10.21V103.25C1840.83,97.61,1845.4,93.03,1851.04,93.03z"/>
		<path id="Path_15" class="st0" d="M1840.83,245.61l85.99-73.64c10.97,8.17,41.12,32.91,42.45,32.91
			c1.87,0,44.47-33.78,44.47-33.78l87.41,74.55"/>
		<path id="Exclusion_2" class="st1" d="M1975.92,199.44c-3.63,2.72-8.62,2.72-12.25,0l-116.92-88.04
			c-4.51-3.38-5.43-9.78-2.03-14.3c1.91-2.56,4.95-4.08,8.16-4.08h38.58V54.56l155.66-0.18l0.84,38.64h38.81
			c5.64,0,10.21,4.58,10.21,10.22c0,3.21-1.52,6.23-4.09,8.16L1975.92,199.44z"/>
		<path id="Path_14" class="st1" d="M1891.09,145.43V54.1h156.35v91.34"/>
		<line id="Line_1" class="st0" x1="1915.36" y1="84.75" x2="1973.33" y2="84.75"/>
		<line id="Line_2" class="st0" x1="1915.36" y1="101.32" x2="2023.01" y2="101.32"/>
		<line id="Line_3" class="st0" x1="1915.36" y1="117.88" x2="2023.01" y2="117.88"/>
		<line id="Line_4" class="st0" x1="1915.36" y1="134.44" x2="2023.01" y2="134.44"/>
		<line id="Line_5" class="st0" x1="1915.36" y1="151.01" x2="2023.01" y2="151.01"/>
	</g>
</g>
</svg>
