<svg xmlns="http://www.w3.org/2000/svg" width="59.2" height="37.304" viewBox="0 0 59.2 37.304">
  <g id="Group_4" data-name="Group 4" transform="translate(-1814 -37)">
    <rect id="Rectangle_700" data-name="Rectangle 700" width="59.2" height="37.304" rx="3" transform="translate(1814 37)" fill="#3fae2a"/>
    <rect id="Rectangle_699" data-name="Rectangle 699" width="25.497" height="15.706" rx="1" transform="translate(1830.625 48.759)" fill="none" stroke="#fff" stroke-width="1"/>
    <path id="Path_15" data-name="Path 15" d="M1834.5,67.974l8.361-8.361h8.769l8.361,8.361" transform="translate(-3.875 -4.275)" fill="none" stroke="#fff" stroke-width="1"/>
    <path id="Polygon_4" data-name="Polygon 4" d="M13.838.453a1,1,0,0,1,1.2,0L26.49,9.074a1,1,0,0,1-.6,1.8H2.99a1,1,0,0,1-.6-1.8Z" transform="translate(1857.693 59.632) rotate(180)" fill="#3fae2a" stroke="#fff" stroke-width="1"/>
    <rect id="Rectangle_701" data-name="Rectangle 701" width="15.408" height="2.433" transform="translate(1835.896 47.542)" fill="#3fae2a"/>
    <path id="Path_14" data-name="Path 14" d="M1841.889,51.144V42.2h15.31v8.944" transform="translate(-6.342 2.746)" fill="none" stroke="#fff" stroke-linejoin="round" stroke-width="1"/>
    <line id="Line_1" data-name="Line 1" x2="5.677" transform="translate(1837.923 47.948)" fill="none" stroke="#fff" stroke-width="1"/>
    <line id="Line_2" data-name="Line 2" x2="10.542" transform="translate(1837.923 49.57)" fill="none" stroke="#fff" stroke-width="1"/>
    <line id="Line_3" data-name="Line 3" x2="10.542" transform="translate(1837.923 51.192)" fill="none" stroke="#fff" stroke-width="1"/>
    <line id="Line_4" data-name="Line 4" x2="10.542" transform="translate(1837.923 52.814)" fill="none" stroke="#fff" stroke-width="1"/>
    <line id="Line_5" data-name="Line 5" x2="10.542" transform="translate(1837.923 54.436)" fill="none" stroke="#fff" stroke-width="1"/>
  </g>
</svg>
