<svg xmlns="http://www.w3.org/2000/svg" width="27" height="27" viewBox="0 0 27 27">
  <g id="Icono_temporadas" data-name="Icono temporadas" transform="translate(-5.9 -956)">
    <path id="Path_61" data-name="Path 61" d="M19.4,956a3.424,3.424,0,0,0-2,.8,6.591,6.591,0,0,1-1.2.719,5.876,5.876,0,0,1-1.391-.016,3.568,3.568,0,0,0-2.141.313,3.52,3.52,0,0,0-1.344,1.7,6.858,6.858,0,0,1-.688,1.219,6.584,6.584,0,0,1-1.234.687,3.557,3.557,0,0,0-1.688,1.344,3.44,3.44,0,0,0-.313,2.141,6.9,6.9,0,0,1,.016,1.391,6.1,6.1,0,0,1-.719,1.2,2.908,2.908,0,0,0,0,4,6.592,6.592,0,0,1,.719,1.2,5.875,5.875,0,0,1-.016,1.391,3.454,3.454,0,0,0,.313,2.141A3.557,3.557,0,0,0,9.4,977.578a7.871,7.871,0,0,1,1.234.688,6.856,6.856,0,0,1,.688,1.219,3.59,3.59,0,0,0,1.344,1.7,3.439,3.439,0,0,0,2.141.313,6.887,6.887,0,0,1,1.391-.016,6.1,6.1,0,0,1,1.2.719,3.424,3.424,0,0,0,2,.8,3.424,3.424,0,0,0,2-.8,6.585,6.585,0,0,1,1.2-.719,5.871,5.871,0,0,1,1.391.016,3.453,3.453,0,0,0,2.141-.312,3.519,3.519,0,0,0,1.344-1.7,6.856,6.856,0,0,1,.687-1.219,6.587,6.587,0,0,1,1.234-.687,3.557,3.557,0,0,0,1.688-1.344,3.44,3.44,0,0,0,.313-2.141,5.876,5.876,0,0,1-.016-1.391,6.1,6.1,0,0,1,.719-1.2,2.908,2.908,0,0,0,0-4,6.593,6.593,0,0,1-.719-1.2,5.876,5.876,0,0,1,.016-1.391,2.937,2.937,0,0,0-2-3.484,7.866,7.866,0,0,1-1.234-.687,6.858,6.858,0,0,1-.687-1.219,3.591,3.591,0,0,0-1.344-1.7,3.441,3.441,0,0,0-2.141-.312,5.876,5.876,0,0,1-1.391.016,6.1,6.1,0,0,1-1.2-.719,3.484,3.484,0,0,0-2-.8Zm0,1.8a3.015,3.015,0,0,1,1,.484,5.452,5.452,0,0,0,1.75.969,5.333,5.333,0,0,0,1.984.031,2.657,2.657,0,0,1,1.109.078,3.019,3.019,0,0,1,.625.922,5.578,5.578,0,0,0,1.031,1.7,5.578,5.578,0,0,0,1.7,1.031,2.529,2.529,0,0,1,.922.625,3.02,3.02,0,0,1,.078,1.109,4.226,4.226,0,0,0,1,3.734,2.5,2.5,0,0,1,.484,1,2.878,2.878,0,0,1-.484,1,4.241,4.241,0,0,0-1,3.75,2.694,2.694,0,0,1-.078,1.109,3.014,3.014,0,0,1-.922.625,5.654,5.654,0,0,0-1.7,1.047,5.577,5.577,0,0,0-1.031,1.7,2.529,2.529,0,0,1-.625.922,3.022,3.022,0,0,1-1.109.078,5.365,5.365,0,0,0-1.984.047,5.751,5.751,0,0,0-1.75.953,2.5,2.5,0,0,1-1,.484,2.878,2.878,0,0,1-1-.484,5.438,5.438,0,0,0-1.75-.953,5.449,5.449,0,0,0-2-.047,2.7,2.7,0,0,1-1.109-.078,3.016,3.016,0,0,1-.625-.922,5.65,5.65,0,0,0-1.047-1.7,5.985,5.985,0,0,0-1.7-1.047,2.526,2.526,0,0,1-.922-.625,2.973,2.973,0,0,1-.078-1.109,5.448,5.448,0,0,0-.047-2,5.946,5.946,0,0,0-.953-1.75,1.274,1.274,0,0,1,0-2,5.948,5.948,0,0,0,.953-1.75,5.364,5.364,0,0,0,.047-1.984,2.656,2.656,0,0,1,.078-1.109,3.013,3.013,0,0,1,.922-.625,5.578,5.578,0,0,0,1.7-1.031,5.986,5.986,0,0,0,1.047-1.7,2.529,2.529,0,0,1,.625-.922,2.976,2.976,0,0,1,1.109-.078,5.776,5.776,0,0,0,2-.031,5.624,5.624,0,0,0,1.75-.969,3.016,3.016,0,0,1,1-.484Zm-3.594,4.8a3.3,3.3,0,1,0,3.3,3.3A3.308,3.308,0,0,0,15.806,962.594Zm8.3,1.2a.957.957,0,0,0-.531.266l-9.594,9.594A.9.9,0,0,0,15.166,975c.031-.031.063-.047.078-.078l9.594-9.594a.891.891,0,0,0,.016-1.266.84.84,0,0,0-.75-.266Zm-8.3.594a1.5,1.5,0,1,1-1.5,1.5A1.481,1.481,0,0,1,15.806,964.391Zm7.2,5.406a3.3,3.3,0,1,0,3.3,3.3A3.308,3.308,0,0,0,23.009,969.8Zm0,1.8a1.5,1.5,0,1,1-1.5,1.5A1.481,1.481,0,0,1,23.009,971.594Z" transform="translate(0 0)" fill="#fff"/>
  </g>
</svg>
