<svg xmlns="http://www.w3.org/2000/svg" width="26.777" height="27.609" viewBox="0 0 26.777 27.609">
  <g id="Icono_vendido-01" data-name="Icono vendido-01" transform="translate(-11.247 -6.327)">
    <path id="Path_62" data-name="Path 62" d="M24.142,18.318a.464.464,0,0,1,.907.194l-.259,1.2,1.021-.664a.47.47,0,0,1,.5.794l-1.021.664,1.2.259a.464.464,0,1,1-.194.907l-1.2-.259.664,1.021a.467.467,0,1,1-.778.519l-.664-1.021-.259,1.2a.464.464,0,1,1-.907-.194l.259-1.2-1.021.664a.47.47,0,1,1-.5-.794l1.021-.664-1.2-.259a.464.464,0,0,1,.194-.907l1.2.259-.664-1.021a.467.467,0,0,1,.778-.519l.664,1.021.259-1.2ZM32.2,10.67l1.442,1.3.065.049a9,9,0,0,0,1.2-.681,7.343,7.343,0,0,0,1.1-.843,3.244,3.244,0,0,0,.227-.259,2.524,2.524,0,0,0,.6-1.41c.049-1.07-.778-1.458-1.75-1.264a3.262,3.262,0,0,0-1.653.94A6.585,6.585,0,0,0,32.2,10.67ZM34.449,12.7l1.491,1.329L34.513,20,25.536,30l-.308.357-2.9,3.225L11.6,23.941q6.077-6.782,12.186-13.563L29.571,8.32l1.88,1.685A6.481,6.481,0,0,1,32.78,7.85a4.3,4.3,0,0,1,2.123-1.2c1.572-.324,2.949.535,2.868,2.22a3.41,3.41,0,0,1-.81,1.961c-.1.113-.194.211-.292.324a7.481,7.481,0,0,1-1.264.972c-.308.194-.648.389-.956.567Zm-2.625-1.086c-.178.486-.357.972-.551,1.458a2.392,2.392,0,0,1,.681,1.507,2.264,2.264,0,0,1-2.2,2.447,2.449,2.449,0,0,1-1.7-.632,2.48,2.48,0,0,1-.81-1.62,2.312,2.312,0,0,1,3.241-2.252c.211-.519.389-1.053.6-1.588L29.344,9.373l-4.959,1.718-8.9,9.9,4.732,4.246,4.6,4.132,8.9-9.9,1.167-5.121-1.88-1.685Zm-2.35,1.637a1.325,1.325,0,0,0-1.3,1.442,1.5,1.5,0,0,0,.5,1,1.474,1.474,0,0,0,1.053.389,1.335,1.335,0,0,0,1.3-1.442,1.732,1.732,0,0,0-1.556-1.394ZM24.207,30.067l-9.334-8.378-1.961,2.188,9.334,8.378Z" transform="translate(0)" fill="#fff" stroke="#fff" stroke-width="0.5"/>
  </g>
</svg>
